<svg width="32" height="32" viewBox="0 0 32 32" fill="none" xmlns="http://www.w3.org/2000/svg">
<path d="M11.9998 16.7331C12.5521 16.7331 12.9998 17.1808 12.9998 17.7331V23.0664C12.9998 23.6187 12.5521 24.0664 11.9998 24.0664C11.4476 24.0664 10.9998 23.6187 10.9998 23.0664V17.7331C10.9998 17.1808 11.4476 16.7331 11.9998 16.7331Z" fill="white"/>
<path d="M15.9998 16.7331C16.5521 16.7331 16.9998 17.1808 16.9998 17.7331V23.0664C16.9998 23.6187 16.5521 24.0664 15.9998 24.0664C15.4476 24.0664 14.9998 23.6187 14.9998 23.0664V17.7331C14.9998 17.1808 15.4476 16.7331 15.9998 16.7331Z" fill="white"/>
<path d="M19.9998 16.7331C20.5521 16.7331 20.9998 17.1808 20.9998 17.7331V23.0664C20.9998 23.6187 20.5521 24.0664 19.9998 24.0664C19.4476 24.0664 18.9998 23.6187 18.9998 23.0664V17.7331C18.9998 17.1808 19.4476 16.7331 19.9998 16.7331Z" fill="white"/>
<path fill-rule="evenodd" clip-rule="evenodd" d="M15.9998 4C14.8953 4 13.9998 4.89543 13.9998 6C13.9998 6.12579 14.0115 6.24887 14.0337 6.36823L6.68549 12.6667H3.99984C3.26346 12.6667 2.6665 13.2636 2.6665 14C2.6665 14.7364 3.26346 15.3333 3.99984 15.3333H4.11666C4.15417 15.4991 4.20345 15.7158 4.26308 15.9756C4.4097 16.6145 4.61905 17.5147 4.87027 18.5614C5.37191 20.6516 6.04371 23.3396 6.71809 25.6999C6.85732 26.1872 7.10868 26.7165 7.50187 27.1497C7.9028 27.5915 8.52227 28.0003 9.33346 28.0003H22.6668C23.4831 28.0003 24.1031 27.5843 24.5007 27.1448C24.8921 26.7123 25.1437 26.1845 25.2822 25.6999C25.9565 23.3396 26.6283 20.6516 27.13 18.5614C27.3812 17.5147 27.5905 16.6145 27.7372 15.9756C27.7968 15.7158 27.8461 15.4991 27.8836 15.3333H27.9998C28.7362 15.3333 29.3332 14.7364 29.3332 14C29.3332 13.2636 28.7362 12.6667 27.9998 12.6667H25.3142L17.966 6.3682C17.9882 6.24886 17.9998 6.12578 17.9998 6C17.9998 4.89543 17.1044 4 15.9998 4ZM25.1486 15.3333H6.85167C6.85513 15.3484 6.85863 15.3637 6.86217 15.3791C7.00722 16.0111 7.21453 16.9026 7.46331 17.9391C7.96167 20.0156 8.6232 22.661 9.28215 24.9673C9.30707 25.0545 9.34014 25.1374 9.37757 25.2089C9.40624 25.2637 9.43374 25.3048 9.45638 25.3336H22.542C22.5657 25.3038 22.5944 25.2611 22.6241 25.2045C22.6616 25.1329 22.6941 25.0512 22.7181 24.9673C23.377 22.661 24.0386 20.0156 24.5369 17.9391C24.7857 16.9026 24.993 16.0111 25.1381 15.3791C25.1416 15.3637 25.1451 15.3484 25.1486 15.3333ZM22.241 12.6667H9.75867L15.3351 7.88687C15.5431 7.96014 15.7668 8 15.9998 8C16.2329 8 16.4566 7.96014 16.6646 7.88686L22.241 12.6667Z" fill="white"/>
</svg>
