<svg width="32" height="32" viewBox="0 0 32 32" fill="none" xmlns="http://www.w3.org/2000/svg">
<path fill-rule="evenodd" clip-rule="evenodd" d="M7.65325 8.98015C7.08346 9.60692 6.66667 10.5995 6.66667 11.9999C6.66667 13.3281 7.20574 14.8359 8.14705 16.4243C9.07931 17.9975 10.3422 19.5431 11.6376 20.9194C12.9286 22.2911 14.2242 23.4657 15.1993 24.2986C15.4881 24.5453 15.748 24.7613 15.9703 24.9428C16.1994 24.7431 16.4697 24.504 16.7713 24.2307C17.7507 23.3431 19.0522 22.1023 20.3493 20.6836C21.6511 19.2597 22.9212 17.6863 23.8586 16.1337C24.8124 14.5539 25.3333 13.1393 25.3333 11.9999C25.3333 10.5995 24.9165 9.60692 24.3467 8.98015C23.7839 8.36104 22.985 7.99992 22 7.99992C19.9721 7.99992 18.3526 9.53294 16.9428 10.9427C16.6928 11.1928 16.3536 11.3333 16 11.3333C15.6464 11.3333 15.3072 11.1928 15.0572 10.9427C13.6474 9.53294 12.0279 7.99992 10 7.99992C9.01501 7.99992 8.21608 8.36104 7.65325 8.98015ZM16 26.6666C15.2 27.7332 15.1998 27.7331 15.1995 27.7328L15.1964 27.7305L15.1889 27.7249L15.1626 27.7049C15.1401 27.6878 15.1077 27.6631 15.0662 27.6311C14.9832 27.5671 14.8634 27.4739 14.7122 27.3537C14.4097 27.1134 13.9808 26.7648 13.4674 26.3262C12.4424 25.4508 11.0714 24.2087 9.69573 22.7471C8.32443 21.2901 6.92069 19.5856 5.85294 17.7838C4.79426 15.9973 4 14.0051 4 11.9999C4 10.067 4.5832 8.39292 5.68008 7.18636C6.78392 5.97213 8.31832 5.33325 10 5.33325C12.6086 5.33325 14.6412 6.86976 16 8.13536C17.3588 6.86976 19.3914 5.33325 22 5.33326C23.6817 5.33326 25.2161 5.97214 26.3199 7.18636C27.4168 8.39292 28 10.067 28 11.9999C28 13.8605 27.1876 15.7792 26.1414 17.512C25.0788 19.2719 23.6823 20.9901 22.3174 22.4829C20.9478 23.9809 19.5826 25.2817 18.562 26.2066C18.0508 26.6699 17.624 27.0408 17.3234 27.297C17.1731 27.4252 17.0543 27.5248 16.9721 27.5931C16.931 27.6273 16.8991 27.6536 16.877 27.6718L16.8513 27.6928L16.8441 27.6987L16.842 27.7004C16.8417 27.7006 16.8408 27.7014 16 26.6666ZM16 26.6666L16.8408 27.7014C16.3659 28.0872 15.6889 28.0999 15.1995 27.7328L16 26.6666Z" fill="white"/>
</svg>
