<svg width="32" height="32" viewBox="0 0 32 32" fill="none" xmlns="http://www.w3.org/2000/svg">
<path fill-rule="evenodd" clip-rule="evenodd" d="M8.82405 4C7.81399 4 6.89062 4.57067 6.43891 5.4741L4.28153 9.78885C4.09639 10.1591 4 10.5674 4 10.9814V15.3333C4 16.3204 4.53626 17.1822 5.33333 17.6432V24C5.33333 25.4728 6.52724 26.6667 8 26.6667H16C17.4728 26.6667 18.6667 25.4728 18.6667 24V18H24V25.3333C24 26.0697 24.597 26.6667 25.3333 26.6667C26.0697 26.6667 26.6667 26.0697 26.6667 25.3333V17.6432C27.4637 17.1822 28 16.3204 28 15.3333V10.9814C28 10.5674 27.9036 10.1591 27.7185 9.78885L25.5611 5.4741C25.1094 4.57067 24.186 4 23.176 4H8.82405ZM16 18H8V24H16V18ZM8.82405 6.66667L23.176 6.66667L24.9426 10.1999H7.05744L8.82405 6.66667ZM25.3333 15.3333V12.4665H22.4665V15.3333H25.3333ZM20.1999 15.3333H17.1332V12.4665H20.1999V15.3333ZM14.8665 15.3333V12.4665H11.7999V15.3333H14.8665ZM9.5332 15.3333V12.4665H6.66667V15.3333H9.5332Z" fill="white"/>
</svg>
